<?xml version="1.0" standalone="no"?>
<!DOCTYPE svg PUBLIC "-//W3C//DTD SVG 1.1//EN" "http://www.w3.org/Graphics/SVG/1.1/DTD/svg11.dtd">
<svg version="1.1" xmlns="http://www.w3.org/2000/svg" viewBox="0 0 130.8157894736844 106.59649122806877" width="130.8157894736844" height="106.59649122806877"><!-- svg-source:excalidraw --><metadata></metadata><defs><style class="style-fonts">
      </style></defs><g stroke-linecap="round" transform="translate(59.07793820835286 72.85087719298463) rotate(0 6.315789473684163 10.960526315790048)"><path d="M0.75 -0.95 L11.87 0.38 L13.58 22.5 L0.27 22.43" stroke="none" stroke-width="0" fill="#ced4da"></path><path d="M0 0 C4.96 -0.34, 9.22 0.47, 12.63 0 M0 0 C3.35 0.23, 7.04 0.15, 12.63 0 M12.63 0 C12.18 8.59, 13.14 14.59, 12.63 21.92 M12.63 0 C12.9 6.93, 12.52 13.56, 12.63 21.92 M12.63 21.92 C7.99 21.61, 3.31 21.35, 0 21.92 M12.63 21.92 C9.17 22.22, 5.4 21.73, 0 21.92 M0 21.92 C0.65 14.54, -0.94 8.07, 0 0 M0 21.92 C-0.21 17.85, 0.06 12.72, 0 0" stroke="#000000" stroke-width="1" fill="none"></path></g><g stroke-linecap="round" transform="translate(10 10) rotate(0 55.407894736842195 32.157894736843446)"><path d="M-1.53 0.75 L112.71 1.16 L111.36 65.34 L1.17 65.45" stroke="none" stroke-width="0" fill="#ced4da"></path><path d="M0 0 C24.59 2.02, 48.65 -1.11, 110.82 0 M0 0 C32.88 -0.32, 67.68 -0.56, 110.82 0 M110.82 0 C111.46 14.57, 110.73 33.14, 110.82 64.32 M110.82 0 C110.72 21.44, 111.6 43.92, 110.82 64.32 M110.82 64.32 C72.29 61.84, 35.93 61.9, 0 64.32 M110.82 64.32 C66.33 64.36, 23.29 65.52, 0 64.32 M0 64.32 C-2.25 43.42, -2.43 25.41, 0 0 M0 64.32 C0.43 40.69, 0.95 17.76, 0 0" stroke="#000000" stroke-width="1" fill="none"></path></g><g stroke-linecap="round" transform="translate(15.56140350877206 13.964912280702265) rotate(0 49.86842105263162 28.157894736843446)"><path d="M1.9 1.16 L100.28 1.02 L100.91 57.45 L0.33 58.02" stroke="none" stroke-width="0" fill="#ffffff"></path><path d="M0 0 C23.45 -2.46, 47.46 -2.49, 99.74 0 M0 0 C37.74 -0.24, 73.98 -0.97, 99.74 0 M99.74 0 C100.23 23.41, 100.73 45.24, 99.74 56.32 M99.74 0 C100.06 18.74, 99.9 35.82, 99.74 56.32 M99.74 56.32 C74.67 53.55, 52.4 55.66, 0 56.32 M99.74 56.32 C62.17 55.86, 24.6 56.2, 0 56.32 M0 56.32 C-1.48 44.3, 1.6 29.7, 0 0 M0 56.32 C0.62 34.83, -0.89 15.64, 0 0" stroke="#000000" stroke-width="1" fill="none"></path></g><g stroke-linecap="round" transform="translate(41.70951715572119 93.70175438596198) rotate(0 23.815789473684163 1.4473684210533975)"><path d="M0.27 0.51 L48.22 0.57 L47.79 3.75 L0.02 2.15" stroke="none" stroke-width="0" fill="#ced4da"></path><path d="M0 0 C17.49 -0.7, 35.65 -0.5, 47.63 0 M0 0 C16.39 -0.3, 33.77 0.18, 47.63 0 M47.63 0 C47.69 0.72, 47.66 1.28, 47.63 2.89 M47.63 0 C47.67 0.79, 47.6 1.59, 47.63 2.89 M47.63 2.89 C38.77 2.82, 28.79 1.98, 0 2.89 M47.63 2.89 C37.25 3.32, 26.42 2.52, 0 2.89 M0 2.89 C0.09 2.12, 0.11 1.47, 0 0 M0 2.89 C-0.07 2.29, 0.06 1.68, 0 0" stroke="#000000" stroke-width="1" fill="none"></path></g><g stroke-linecap="round"><g transform="translate(66.71909395726902 23.915758774994174) rotate(0 15.465351168930056 11.138447170211293)"><path d="M0 0 C0.66 0, 2.41 -3.65, 3.97 0 C5.54 3.65, 4.89 18.03, 9.38 21.87 C13.88 25.72, 27.34 22.87, 30.93 23.07 M0 0 C0.66 0, 2.41 -3.65, 3.97 0 C5.54 3.65, 4.89 18.03, 9.38 21.87 C13.88 25.72, 27.34 22.87, 30.93 23.07" stroke="#1e1e1e" stroke-width="2" fill="none"></path></g></g><mask></mask><g stroke-linecap="round"><g transform="translate(80.79230530518953 30.226376714876096) rotate(0 11.347756694927625 8.16897359874929)"><path d="M0 0 C3.48 0.28, 17.25 -1.05, 20.87 1.69 C24.49 4.42, 21.58 13.97, 21.72 16.42 M0 0 C3.48 0.28, 17.25 -1.05, 20.87 1.69 C24.49 4.42, 21.58 13.97, 21.72 16.42" stroke="#1e1e1e" stroke-width="2" fill="none"></path></g></g><mask></mask><g stroke-linecap="round" transform="translate(82.42720890907572 43.118839221329836) rotate(0 6.967631472270568 6.967631472271023)"><path d="M13.94 6.97 C13.94 7.37, 13.9 7.78, 13.83 8.18 C13.76 8.57, 13.65 8.97, 13.52 9.35 C13.38 9.73, 13.2 10.1, 13 10.45 C12.8 10.8, 12.56 11.14, 12.31 11.45 C12.05 11.76, 11.76 12.05, 11.45 12.31 C11.14 12.56, 10.8 12.8, 10.45 13 C10.1 13.2, 9.73 13.38, 9.35 13.52 C8.97 13.65, 8.57 13.76, 8.18 13.83 C7.78 13.9, 7.37 13.94, 6.97 13.94 C6.56 13.94, 6.15 13.9, 5.76 13.83 C5.36 13.76, 4.96 13.65, 4.58 13.52 C4.21 13.38, 3.83 13.2, 3.48 13 C3.13 12.8, 2.8 12.56, 2.49 12.31 C2.18 12.05, 1.89 11.76, 1.63 11.45 C1.37 11.14, 1.14 10.8, 0.93 10.45 C0.73 10.1, 0.56 9.73, 0.42 9.35 C0.28 8.97, 0.18 8.57, 0.11 8.18 C0.04 7.78, 0 7.37, 0 6.97 C0 6.56, 0.04 6.15, 0.11 5.76 C0.18 5.36, 0.28 4.96, 0.42 4.58 C0.56 4.21, 0.73 3.83, 0.93 3.48 C1.14 3.13, 1.37 2.8, 1.63 2.49 C1.89 2.18, 2.18 1.89, 2.49 1.63 C2.8 1.37, 3.13 1.14, 3.48 0.93 C3.83 0.73, 4.21 0.56, 4.58 0.42 C4.96 0.28, 5.36 0.18, 5.76 0.11 C6.15 0.04, 6.56 0, 6.97 0 C7.37 0, 7.78 0.04, 8.18 0.11 C8.57 0.18, 8.97 0.28, 9.35 0.42 C9.73 0.56, 10.1 0.73, 10.45 0.93 C10.8 1.14, 11.14 1.37, 11.45 1.63 C11.76 1.89, 12.05 2.18, 12.31 2.49 C12.56 2.8, 12.8 3.13, 13 3.48 C13.2 3.83, 13.38 4.21, 13.52 4.58 C13.65 4.96, 13.76 5.36, 13.83 5.76 C13.9 6.15, 13.92 6.77, 13.94 6.97 C13.95 7.17, 13.95 6.77, 13.94 6.97" stroke="none" stroke-width="0" fill="#a5d8ff"></path><path d="M13.94 6.97 C13.94 7.37, 13.9 7.78, 13.83 8.18 C13.76 8.57, 13.65 8.97, 13.52 9.35 C13.38 9.73, 13.2 10.1, 13 10.45 C12.8 10.8, 12.56 11.14, 12.31 11.45 C12.05 11.76, 11.76 12.05, 11.45 12.31 C11.14 12.56, 10.8 12.8, 10.45 13 C10.1 13.2, 9.73 13.38, 9.35 13.52 C8.97 13.65, 8.57 13.76, 8.18 13.83 C7.78 13.9, 7.37 13.94, 6.97 13.94 C6.56 13.94, 6.15 13.9, 5.76 13.83 C5.36 13.76, 4.96 13.65, 4.58 13.52 C4.21 13.38, 3.83 13.2, 3.48 13 C3.13 12.8, 2.8 12.56, 2.49 12.31 C2.18 12.05, 1.89 11.76, 1.63 11.45 C1.37 11.14, 1.14 10.8, 0.93 10.45 C0.73 10.1, 0.56 9.73, 0.42 9.35 C0.28 8.97, 0.18 8.57, 0.11 8.18 C0.04 7.78, 0 7.37, 0 6.97 C0 6.56, 0.04 6.15, 0.11 5.76 C0.18 5.36, 0.28 4.96, 0.42 4.58 C0.56 4.21, 0.73 3.83, 0.93 3.48 C1.14 3.13, 1.37 2.8, 1.63 2.49 C1.89 2.18, 2.18 1.89, 2.49 1.63 C2.8 1.37, 3.13 1.14, 3.48 0.93 C3.83 0.73, 4.21 0.56, 4.58 0.42 C4.96 0.28, 5.36 0.18, 5.76 0.11 C6.15 0.04, 6.56 0, 6.97 0 C7.37 0, 7.78 0.04, 8.18 0.11 C8.57 0.18, 8.97 0.28, 9.35 0.42 C9.73 0.56, 10.1 0.73, 10.45 0.93 C10.8 1.14, 11.14 1.37, 11.45 1.63 C11.76 1.89, 12.05 2.18, 12.31 2.49 C12.56 2.8, 12.8 3.13, 13 3.48 C13.2 3.83, 13.38 4.21, 13.52 4.58 C13.65 4.96, 13.76 5.36, 13.83 5.76 C13.9 6.15, 13.92 6.77, 13.94 6.97 C13.95 7.17, 13.95 6.77, 13.94 6.97" stroke="#1e1e1e" stroke-width="2" fill="none"></path></g><g stroke-linecap="round"><g transform="translate(40.53197252208622 35.18524053845613) rotate(0 -0.516825197150979 5.451814518666652)" fill-rule="evenodd"><path d="M0 0 C-1.07 -0.81, -4.51 -4.17, -6.44 -4.83 C-8.37 -5.49, -10.54 -5.23, -11.57 -3.96 C-12.61 -2.68, -13.83 0.02, -12.67 2.81 C-11.52 5.59, -6.85 10.44, -4.63 12.77 C-2.4 15.09, -1.07 16.81, 0.68 16.76 C2.42 16.71, 4.01 14.9, 5.83 12.44 C7.65 9.98, 10.74 4.85, 11.6 2 C12.47 -0.85, 12.18 -3.41, 11.04 -4.65 C9.89 -5.89, 6.58 -6.21, 4.74 -5.44 C2.9 -4.66, 0.79 -0.91, 0 0" stroke="none" stroke-width="0" fill="#c2255c" fill-rule="evenodd"></path><path d="M0 0 C-1.07 -0.81, -4.51 -4.17, -6.44 -4.83 C-8.37 -5.49, -10.54 -5.23, -11.57 -3.96 C-12.61 -2.68, -13.83 0.02, -12.67 2.81 C-11.52 5.59, -6.85 10.44, -4.63 12.77 C-2.4 15.09, -1.07 16.81, 0.68 16.76 C2.42 16.71, 4.01 14.9, 5.83 12.44 C7.65 9.98, 10.74 4.85, 11.6 2 C12.47 -0.85, 12.18 -3.41, 11.04 -4.65 C9.89 -5.89, 6.58 -6.21, 4.74 -5.44 C2.9 -4.66, 0.79 -0.91, 0 0 M0 0 C-1.07 -0.81, -4.51 -4.17, -6.44 -4.83 C-8.37 -5.49, -10.54 -5.23, -11.57 -3.96 C-12.61 -2.68, -13.83 0.02, -12.67 2.81 C-11.52 5.59, -6.85 10.44, -4.63 12.77 C-2.4 15.09, -1.07 16.81, 0.68 16.76 C2.42 16.71, 4.01 14.9, 5.83 12.44 C7.65 9.98, 10.74 4.85, 11.6 2 C12.47 -0.85, 12.18 -3.41, 11.04 -4.65 C9.89 -5.89, 6.58 -6.21, 4.74 -5.44 C2.9 -4.66, 0.79 -0.91, 0 0" stroke="#1e1e1e" stroke-width="2" fill="none"></path></g></g><mask></mask><g stroke-linecap="round"><g transform="translate(57.66946614191397 45.06644552376383) rotate(0 6.5450189293417225 8.401261072704074)" fill-rule="evenodd"><path d="M0 0 C2.15 0.06, 10.72 -2.51, 12.9 0.37 C15.09 3.25, 14.09 15.51, 13.1 17.26 C12.12 19.02, 9.29 10.84, 6.99 10.88 C4.68 10.93, 0.44 19.36, -0.73 17.54 C-1.89 15.73, -0.12 2.92, 0 0" stroke="none" stroke-width="0" fill="#ffec99" fill-rule="evenodd"></path><path d="M0 0 C2.15 0.06, 10.72 -2.51, 12.9 0.37 C15.09 3.25, 14.09 15.51, 13.1 17.26 C12.12 19.02, 9.29 10.84, 6.99 10.88 C4.68 10.93, 0.44 19.36, -0.73 17.54 C-1.89 15.73, -0.12 2.92, 0 0 M0 0 C2.15 0.06, 10.72 -2.51, 12.9 0.37 C15.09 3.25, 14.09 15.51, 13.1 17.26 C12.12 19.02, 9.29 10.84, 6.99 10.88 C4.68 10.93, 0.44 19.36, -0.73 17.54 C-1.89 15.73, -0.12 2.92, 0 0" stroke="#1e1e1e" stroke-width="2" fill="none"></path></g></g><mask></mask></svg>