<?xml version="1.0" standalone="no"?>
<!DOCTYPE svg PUBLIC "-//W3C//DTD SVG 1.1//EN" "http://www.w3.org/Graphics/SVG/1.1/DTD/svg11.dtd">
<svg version="1.1" xmlns="http://www.w3.org/2000/svg" viewBox="0 0 232.44623324584848 204.35252824909549" width="232.44623324584848" height="204.35252824909549"><!-- svg-source:excalidraw --><metadata></metadata><defs><style class="style-fonts">
      </style></defs><g stroke-linecap="round" transform="translate(65.17596274904838 91.22780439101189) rotate(89.84581914729895 51.56236192904282 51.5623619290418)"><path d="M16.9 14.69 C16.9 14.69, 16.9 14.69, 16.9 14.69 M16.9 14.69 C16.9 14.69, 16.9 14.69, 16.9 14.69 M1.29 44.85 C17.6 28.32, 30.55 9.21, 39.34 1.07 M1.29 44.85 C15.3 28.77, 30.09 9.9, 39.34 1.07 M1.42 56.89 C11.08 43.61, 21.67 34.11, 49.32 1.79 M1.42 56.89 C13.96 43.98, 24.5 28.44, 49.32 1.79 M2.87 67.42 C22.21 46.17, 41.67 22.75, 59.29 2.51 M2.87 67.42 C24.78 43.01, 45.29 17.98, 59.29 2.51 M7.59 74.18 C25.76 55.67, 41.83 34.48, 69.26 3.23 M7.59 74.18 C21.63 58.64, 35.84 43.26, 69.26 3.23 M11.66 81.69 C26.89 61.17, 48.38 42.93, 75.96 7.73 M11.66 81.69 C27.19 63.85, 43.79 45.05, 75.96 7.73 M17.04 87.69 C34.2 69.75, 50.66 51.66, 82.65 12.22 M17.04 87.69 C35.79 68.14, 52.07 48.78, 82.65 12.22 M23.74 92.19 C40.96 67.73, 63.91 47.82, 89.34 16.72 M23.74 92.19 C42.67 68.54, 62.84 45.26, 89.34 16.72 M30.43 96.68 C56.2 67.18, 80.81 40.72, 93.41 24.23 M30.43 96.68 C49.95 75.61, 70.38 52.52, 93.41 24.23 M37.78 100.42 C58.36 80.17, 74.94 56.92, 97.48 31.74 M37.78 100.42 C60.02 74.09, 84.43 45.63, 97.48 31.74 M47.76 101.14 C69.01 76.96, 87.93 56.56, 102.21 38.5 M47.76 101.14 C67.02 77.8, 87.65 54.64, 102.21 38.5 M58.39 101.1 C70.16 86.83, 81.91 74.97, 102.34 50.54 M58.39 101.1 C67.14 90.62, 76.82 77.77, 102.34 50.54 M72.95 96.54 C80.09 88.91, 84.84 79.95, 101.82 63.33 M72.95 96.54 C84.18 83.82, 95.07 71.09, 101.82 63.33 M14.68 86.76 C14.68 86.76, 14.68 86.76, 14.68 86.76 M14.68 86.76 C14.68 86.76, 14.68 86.76, 14.68 86.76 M42.57 100.4 C32.49 90.39, 21.75 82.95, 1.82 64.98 M42.57 100.4 C31.57 90.48, 21.37 82.57, 1.82 64.98 M55.37 100.93 C42.51 89.07, 27.2 76.4, 1.78 54.35 M55.37 100.93 C41.21 90.25, 29.87 79.53, 1.78 54.35 M66.65 100.14 C45.98 80.34, 26.7 64.24, 1.75 43.72 M66.65 100.14 C48.12 84.13, 28.27 66.62, 1.75 43.72 M74.17 96.07 C46.31 70.42, 16.27 44.78, 3.22 34.4 M74.17 96.07 C55.5 80.94, 39.27 64.71, 3.22 34.4 M81.68 92 C54.03 68.63, 27.19 43.6, 7.72 27.7 M81.68 92 C65.24 76.93, 48.71 62.56, 7.72 27.7 M88.44 87.27 C60.51 63.65, 34.28 39, 12.21 21.01 M88.44 87.27 C63.46 66.03, 38.96 44.62, 12.21 21.01 M92.18 79.92 C74.87 66.22, 59.76 50.65, 16.7 14.32 M92.18 79.92 C71.09 60.47, 50.39 43.36, 16.7 14.32 M96.67 73.23 C71.22 49.54, 43.91 28.34, 24.22 10.25 M96.67 73.23 C74.46 55.85, 53.88 37.49, 24.22 10.25 M100.41 65.88 C74.89 43.05, 50.05 21.54, 31.73 6.18 M100.41 65.88 C84.16 51.17, 69.68 39.24, 31.73 6.18 M101.88 56.56 C84.28 39.97, 62.79 21.89, 38.49 1.45 M101.88 56.56 C77.23 35.58, 52.21 14.2, 38.49 1.45 M102.6 46.59 C83.68 29.88, 59.89 13.24, 50.53 1.32 M102.6 46.59 C89.92 36.53, 76.62 23.99, 50.53 1.32 M97.29 31.37 C84.78 19.42, 71.36 10.56, 62.57 1.19 M97.29 31.37 C88.16 23.67, 78.25 15.57, 62.57 1.19" stroke="#b2f2bb" stroke-width="1" fill="none"></path><path d="M66.09 1.54 C74.08 3.21, 81.78 9.23, 87.85 15.64 C93.91 22.04, 100.32 31.58, 102.49 39.96 C104.65 48.34, 103.45 57.73, 100.84 65.93 C98.24 74.12, 93.1 83.22, 86.86 89.13 C80.62 95.03, 71.68 99.47, 63.4 101.34 C55.12 103.22, 45.25 102.75, 37.16 100.35 C29.08 97.95, 20.86 92.82, 14.87 86.93 C8.89 81.03, 3.52 73.36, 1.23 64.98 C-1.05 56.61, -1.42 45.03, 1.16 36.68 C3.74 28.33, 10.41 20.77, 16.73 14.89 C23.06 9, 29.88 3.23, 39.1 1.37 C48.32 -0.49, 65.63 2.41, 72.05 3.74 C78.48 5.07, 78 8.41, 77.64 9.34 M48.75 0.07 C56.9 -1.62, 67.66 0.32, 75.07 4.14 C82.47 7.95, 88.5 15.78, 93.16 22.95 C97.82 30.13, 102.34 38.76, 103.03 47.17 C103.72 55.58, 101.13 65.62, 97.32 73.41 C93.5 81.2, 87.2 88.78, 80.12 93.91 C73.05 99.03, 63.35 103.44, 54.86 104.17 C46.37 104.91, 36.6 102.1, 29.18 98.3 C21.76 94.5, 15.12 88.77, 10.35 81.38 C5.58 74, 1.5 62.77, 0.55 53.98 C-0.41 45.2, 0.78 36, 4.62 28.7 C8.47 21.39, 16.68 15.11, 23.64 10.15 C30.6 5.2, 42.21 0.46, 46.39 -1.05 C50.57 -2.55, 48.59 0.01, 48.72 1.11" stroke="#444444" stroke-width="2" fill="none"></path></g><g stroke-linecap="round"><g transform="translate(119.48902898778817 123.92084068973054) rotate(89.84581914729895 0 19.346329447263997)" fill-rule="evenodd"><path d="M0.27 -0.99 L22.91 38.23 L-22.44 39.37 L-0.84 -0.8" stroke="none" stroke-width="0" fill="#b2f2bb" fill-rule="evenodd"></path><path d="M0 0 C8.25 13.45, 17.68 28.36, 23.22 38.6 M0 0 C5.47 8.18, 10.18 16.49, 23.22 38.6 M23.22 38.6 C6.98 37.76, -8.51 38.1, -23.22 38.6 M23.22 38.6 C10.33 38.89, -1.7 38.4, -23.22 38.6 M-23.22 38.6 C-17.14 28.4, -10.48 16.95, 0 0 M-23.22 38.6 C-16.34 27.5, -9.69 16.22, 0 0 M0 0 C0 0, 0 0, 0 0 M0 0 C0 0, 0 0, 0 0" stroke="#444444" stroke-width="2" fill="none"></path></g></g><mask></mask><g stroke-linecap="round"><g transform="translate(43.43513662329303 123.23847792660672) rotate(0 72.08765309369858 -50.968632734322455)" fill-rule="evenodd"><path d="M1.55 -0.86 C4.34 -14.83, -4.87 -69.12, 16.29 -84.19 C37.46 -99.26, 106.63 -104.77, 128.55 -91.25 C150.48 -77.74, 142.09 -18.78, 147.86 -3.1 C153.64 12.58, 162.82 17.21, 163.2 2.83 C163.59 -11.56, 157.68 -70.48, 150.18 -89.41 C142.68 -108.34, 139.71 -107.61, 118.19 -110.74 C96.67 -113.88, 42.32 -116.62, 21.06 -108.24 C-0.21 -99.86, -3.35 -78.25, -9.4 -60.44 C-15.46 -42.62, -17.1 -11.22, -15.26 -1.34 C-13.41 8.53, -0.94 -1.79, 1.67 -1.21" stroke="none" stroke-width="0" fill="#e9ecef" fill-rule="evenodd"></path><path d="M0.35 -0.96 C3.18 -15.02, -5 -69.29, 16.9 -84.2 C38.79 -99.12, 110.38 -104.19, 131.7 -90.43 C153.02 -76.66, 139.68 -16.83, 144.82 -1.62 C149.96 13.59, 161.52 15.36, 162.54 0.85 C163.57 -13.66, 158.57 -70.09, 150.97 -88.69 C143.37 -107.28, 138.97 -108.02, 116.96 -110.74 C94.95 -113.47, 40.04 -113.52, 18.9 -105.03 C-2.25 -96.55, -4.18 -77.06, -9.92 -59.82 C-15.67 -42.58, -17.25 -11.53, -15.58 -1.59 C-13.91 8.35, -2.49 -0.49, 0.1 -0.21 M-0.93 1.16 C2.28 -13.23, -2.94 -70.68, 19.1 -85.7 C41.15 -100.72, 110.43 -103.1, 131.34 -88.94 C152.25 -74.78, 139.59 -15.71, 144.55 -0.74 C149.52 14.23, 159.88 15.76, 161.11 0.91 C162.35 -13.95, 159.22 -71.05, 151.97 -89.89 C144.72 -108.72, 139.95 -109.64, 117.61 -112.11 C95.27 -114.59, 39.39 -113.33, 17.95 -104.75 C-3.49 -96.16, -5.05 -78.23, -11.02 -60.59 C-17 -42.95, -19.82 -9.11, -17.91 1.09 C-15.99 11.3, -2.27 0.89, 0.47 0.67" stroke="#000000" stroke-width="2" fill="none"></path></g></g><mask></mask><g stroke-linecap="round" transform="translate(10 98.84720929796458) rotate(0 27.001559621174636 41.266534515380044)"><path d="M13.5 0 C22.07 0.17, 37.44 2.79, 40.5 0 C47.49 3.55, 52.32 4.99, 54 13.5 C57.58 37.19, 54.48 57.99, 54 69.03 C51.47 78.12, 46.98 82.12, 40.5 82.53 C32.91 86.23, 25.38 80.52, 13.5 82.53 C4.76 79.01, -0.74 81.34, 0 69.03 C2.84 51.05, 1.23 31.33, 0 13.5 C-1.51 7.5, 4.05 2.1, 13.5 0" stroke="none" stroke-width="0" fill="#868e96"></path><path d="M13.5 0 C24.37 1.5, 31.81 -1.42, 40.5 0 M13.5 0 C19.98 -0.11, 27.79 0.1, 40.5 0 M40.5 0 C49.75 1.99, 55.82 6.46, 54 13.5 M40.5 0 C51.58 -1.91, 54.2 4.1, 54 13.5 M54 13.5 C53.77 31.36, 53.35 45.41, 54 69.03 M54 13.5 C54.3 32.13, 53.77 52.86, 54 69.03 M54 69.03 C52.72 77.19, 50.52 82.49, 40.5 82.53 M54 69.03 C56.18 76.14, 51.01 83.06, 40.5 82.53 M40.5 82.53 C29.86 83.02, 22.91 81.64, 13.5 82.53 M40.5 82.53 C33.03 82.9, 23.41 83.02, 13.5 82.53 M13.5 82.53 C3.44 83.38, -0.58 79.02, 0 69.03 M13.5 82.53 C2.53 80.36, 2.08 79.94, 0 69.03 M0 69.03 C-1.54 51.79, -0.73 29.7, 0 13.5 M0 69.03 C1.31 50.21, 0.95 31.11, 0 13.5 M0 13.5 C-1.68 4.65, 3.13 -1.45, 13.5 0 M0 13.5 C1.81 3.06, 6.77 -0.82, 13.5 0" stroke="#000000" stroke-width="2" fill="none"></path></g><g stroke-linecap="round" transform="translate(168.4431140034992 100.37559946518013) rotate(0 27.001559621174636 41.266534515380044)"><path d="M13.5 0 C23.22 2.65, 26.23 3.54, 40.5 0 C47.82 0.49, 57.03 4.55, 54 13.5 C55.45 28.01, 52.46 38.94, 54 69.03 C51.48 77.61, 49.5 83.07, 40.5 82.53 C32.3 80.78, 22.21 79.48, 13.5 82.53 C3.76 85.84, 1.95 77.7, 0 69.03 C0.38 53.85, -2.28 38.4, 0 13.5 C-0.45 6.6, 7.95 2.46, 13.5 0" stroke="none" stroke-width="0" fill="#868e96"></path><path d="M13.5 0 C19.99 -1.81, 24.67 -0.05, 40.5 0 M13.5 0 C20.18 0.03, 26.95 1.07, 40.5 0 M40.5 0 C51.32 1.96, 55.81 2.84, 54 13.5 M40.5 0 C49.7 -0.4, 53.98 4.71, 54 13.5 M54 13.5 C53.23 27.94, 54.91 42.99, 54 69.03 M54 13.5 C54.77 29.58, 53.83 44.15, 54 69.03 M54 69.03 C55.02 77.99, 51.39 80.89, 40.5 82.53 M54 69.03 C55.51 78.56, 50.82 81.83, 40.5 82.53 M40.5 82.53 C32.27 81.5, 20.75 83.62, 13.5 82.53 M40.5 82.53 C30.63 82.96, 21.29 83.02, 13.5 82.53 M13.5 82.53 C3.92 83.52, -1.72 76.15, 0 69.03 M13.5 82.53 C6.58 84.44, 1.03 79.56, 0 69.03 M0 69.03 C-0.04 53.27, 1.04 37.93, 0 13.5 M0 69.03 C0.01 56.44, -1.3 45.14, 0 13.5 M0 13.5 C-1.37 3.05, 6.08 -1.25, 13.5 0 M0 13.5 C2.27 3.68, 6.8 0.22, 13.5 0" stroke="#000000" stroke-width="2" fill="none"></path></g></svg>